<?xml version="1.0" standalone="no"?>
<!DOCTYPE svg PUBLIC "-//W3C//DTD SVG 20010904//EN"
 "http://www.w3.org/TR/2001/REC-SVG-20010904/DTD/svg10.dtd">
<svg version="1.0" xmlns="http://www.w3.org/2000/svg"
 width="1712.000000pt" height="1712.000000pt" viewBox="0 0 1712.000000 1712.000000"
 preserveAspectRatio="xMidYMid meet">
<metadata>
Created by potrace 1.11, written by Peter Selinger 2001-2013
</metadata>
<g transform="translate(0.000000,1712.000000) scale(0.100000,-0.100000)"
fill="#000000" stroke="none">
<path d="M2670 10060 l0 -6400 840 0 840 0 1 5618 c0 4711 3 5611 14 5582 7
-19 27 -71 43 -115 16 -44 163 -435 327 -870 380 -1010 582 -1547 605 -1610
39 -109 112 -301 120 -320 5 -11 46 -119 90 -240 45 -121 85 -229 90 -240 5
-11 64 -166 130 -345 67 -179 125 -334 130 -345 5 -11 23 -56 39 -100 166
-448 254 -683 262 -700 5 -11 74 -195 155 -410 266 -710 564 -1505 574 -1528
5 -12 40 -103 76 -202 37 -99 84 -227 106 -285 21 -58 45 -118 52 -135 8 -16
19 -48 26 -70 7 -22 18 -53 25 -70 7 -16 27 -66 43 -110 54 -148 133 -360 142
-380 4 -11 14 -36 20 -55 7 -19 19 -48 25 -65 7 -16 56 -145 108 -285 l95
-255 872 0 872 0 124 330 c69 182 134 357 146 390 11 33 26 74 34 90 7 17 34
86 59 155 25 69 49 134 54 145 9 21 51 135 116 310 20 55 41 109 46 120 4 11
33 88 64 170 31 83 62 166 70 185 8 19 61 161 119 315 120 322 340 908 463
1235 46 124 90 241 97 260 32 88 498 1328 507 1350 6 14 51 133 100 265 49
132 93 249 98 260 6 11 40 101 76 200 37 99 77 207 90 240 27 71 213 564 231
615 7 19 36 96 64 170 28 74 66 176 85 225 46 125 173 463 190 505 7 19 50
134 95 255 45 121 86 229 90 240 5 11 69 180 142 376 l133 356 3 -5614 2
-5613 845 0 845 0 0 6400 0 6400 -1291 -2 -1292 -3 -29 -80 c-17 -44 -34 -89
-39 -100 -5 -11 -54 -141 -109 -290 -55 -148 -105 -279 -110 -290 -5 -11 -56
-147 -114 -302 -58 -155 -110 -292 -115 -305 -6 -13 -31 -79 -56 -148 -25 -69
-49 -132 -52 -140 -4 -8 -7 -17 -8 -20 -1 -5 -33 -90 -70 -185 -12 -33 -73
-195 -135 -360 -61 -165 -117 -313 -124 -330 -7 -16 -28 -70 -46 -120 -18 -49
-38 -103 -45 -120 -7 -16 -20 -52 -30 -80 -9 -27 -21 -59 -26 -70 -11 -24
-157 -413 -205 -545 -19 -52 -39 -104 -44 -115 -5 -11 -23 -58 -40 -105 -17
-47 -34 -94 -39 -105 -5 -11 -22 -56 -38 -100 -30 -81 -109 -289 -143 -380
-64 -166 -122 -321 -124 -330 -2 -5 -8 -23 -15 -40 -7 -16 -59 -154 -116 -305
-310 -827 -398 -1060 -416 -1105 -28 -73 -204 -539 -379 -1005 -242 -646 -330
-881 -355 -945 -13 -33 -55 -145 -95 -250 -39 -104 -75 -199 -80 -210 -5 -11
-23 -60 -41 -110 -18 -49 -36 -94 -40 -98 -4 -5 -16 17 -28 50 -12 32 -26 66
-31 75 -6 10 -10 26 -10 36 0 10 -4 22 -9 28 -4 5 -23 50 -41 99 -18 50 -39
106 -46 125 -7 19 -277 739 -600 1600 -323 861 -593 1581 -600 1600 -7 19 -88
235 -180 480 -92 245 -175 470 -186 500 -11 30 -23 64 -28 75 -9 18 -43 109
-130 345 -27 73 -366 976 -600 1600 -65 173 -267 711 -448 1195 l-330 880
-1291 3 -1291 2 0 -6400z"/>
</g>
</svg>
